<svg id="Layer_1" data-name="Layer 1" xmlns="http://www.w3.org/2000/svg" viewBox="0 0 3000 3000"><defs><style>.cls-1{fill:#e7ecf0;}.cls-2{fill:#020202;}.cls-3{fill:#f7794e;}.cls-4{fill:#3c9ece;}.cls-5{fill:#3477c1;}</style></defs><rect class="cls-1" width="3000" height="3000"/><path d="M1874.19,1600.79c4.71,19.34,16.81,37.1,32.5,48.09,21.32,14.94,45.08,20.64,70.78,17.55a126.15,126.15,0,0,0,66.21-28.32c4.1-3.37,7.54-7.82,13-9.17,5.36.82,8.75,4.53,12.21,7.8,12.59,11.87,25.89,23,37.1,36.29a19.08,19.08,0,0,1,4.84,10.61c-1.81,7.47-7.94,12.14-13.55,17.15-25.68,23-56,36.58-89.44,43.34a232,232,0,0,1-95.08-.4c-50.18-10.68-86.93-39.36-111.6-84-13.05-23.63-19.69-49-21.22-75.88-2.16-38.17,4.53-74.32,24-107.65,31.79-54.47,79.57-82.14,142.25-84.93,25.14-1.12,49.66,2,73.39,10.47,50.42,18,82.74,53.47,99.33,103.87,7,21.35,8.52,43.43,8.26,65.7a39,39,0,0,1-1.8,11.14c-3,9.7-9.7,15.45-20,16.38-4.83.44-9.73.31-14.59.32q-99.81.2-199.63.41C1885.8,1599.54,1880.35,1598.56,1874.19,1600.79Zm3.19-71.42c3.14,3.06,7.08,1.59,10.64,1.59,15.63,0,31.25-.22,46.88-.31,28.57-.16,57.13-.23,85.69-.45,3.57,0,7.69,1.14,10.17-2.9-2-25.28-39.44-55.41-76.72-54.64C1916.44,1473.45,1884.4,1496.44,1877.38,1529.37Z"/><path d="M2260.42,1430a169.54,169.54,0,0,1,32.23-22.1c33.16-17.43,68.2-21.78,103.8-11.15,50.37,15.06,79,50.6,88.67,101.73A188.19,188.19,0,0,1,2488,1534c-.18,59.49-.15,119-.23,178.47a93.07,93.07,0,0,1-.44,13c-1.47,10.48-6.48,15.06-17.1,16.08-2.68.26-5.4.15-8.11.16q-23.52,0-47,0a78.68,78.68,0,0,1-9.72-.25c-8.93-1.11-13.48-5.82-14.19-14.77-.35-4.3-.19-8.65-.19-13q.06-77.87.12-155.75c0-10.26.2-20.58-3-30.54-1.16-3.6-2.23-7.23-3.52-10.77-6.92-19-20.39-30.33-40.36-33.21-29.18-4.21-57.36,4.33-74.14,32-5.71,9.41-9.37,19.44-9.35,30.62,0,7-.24,14.06-.24,21.09,0,42.72,0,85.45-.09,128.17,0,9.73-.09,19.5-.95,29.17-1.08,12.15-6.57,16.89-19,17.71-1.61.11-3.24.07-4.86.06q-25.15-.2-50.3-.41a54.47,54.47,0,0,1-8.09-.35c-7.75-1.23-12.6-6.14-13.49-13.93a114.33,114.33,0,0,1-.39-13q-.09-146.82-.1-293.65a131.07,131.07,0,0,1,.59-14.57c.58-5.21,3.05-8,8.4-8.22,25.93-1.34,51.88-1.12,77.82-.1,5.33.21,7.47,2.71,8.17,8.33C2259.06,1413.12,2259.51,1420,2260.42,1430Z"/><path d="M781,1623.09c5,.76,8.28,3.63,11.43,6.55,12.7,11.75,25.53,23.39,37.83,35.55,11.22,11.11,11.1,15.42.21,27.15-15.32,16.51-33.79,28.85-54.3,37.67-50.82,21.85-102.86,25.44-154.74,5-61.61-24.33-96.36-71.11-106.9-136a185.62,185.62,0,0,1,7.08-89.76c16.85-50.24,50.41-85,99.55-104.42,66.83-26.47,147.34-12.65,199.42,33.81,5.66,5,11,10.37,15.19,16.79,3.4,5.21,3.21,10.12-.6,14.94a62.07,62.07,0,0,1-5.19,6.21q-17.46,17-35.07,33.75a51.5,51.5,0,0,1-6.33,5.07c-7,4.81-11,4.85-17.64-.09-3.89-2.91-7.44-6.28-11.28-9.27-19.89-15.51-42.33-23.43-67.69-23.15-38,.41-67.23,23.79-78.35,55-13.49,37.86-2.91,79.31,27.66,102.32,19.12,14.4,41.23,18.39,64.47,16.83,22.22-1.5,41.82-10.18,59.53-23.48C770.41,1629.73,774.75,1624.61,781,1623.09Z"/><path d="M1068.22,1485.73c-10.63,0-20.34-.29-30,.06-17.92.64-28.29-4.57-27.19-26.66.61-12.41,0-24.88,0-37.32,0-5.36.34-10.72.48-14.9,5.44-6.59,11.45-8.4,18.26-8.32,9.74.12,19.47.25,29.21.3,3.15,0,6.48.83,9.53-2,2.49-3.55,1.41-8,1.45-12.2.14-16.77,0-33.54.07-50.31,0-3.78-.14-7.59.23-11.35.87-8.83,4.3-12.49,13.37-13.2,8.07-.64,16.21-.49,24.33-.55,12.44-.1,24.88-.16,37.32-.08a92.86,92.86,0,0,1,12.92.87c5,.75,7.65,3.5,8.29,8.57a107.55,107.55,0,0,1,.58,13c.09,17.85,0,35.7.14,53.55,0,3.71.45,7.41.61,10,3.17,4.16,6.59,3.55,9.75,3.56,16.77.06,33.54,0,50.31.07a90,90,0,0,1,9.72.11c7,.8,10.65,4.23,12.16,11.06a30.34,30.34,0,0,1,.81,6.42c.07,17.31.38,34.63-.06,51.93-.31,12.51-5.33,17.16-18.33,17.47-15.68.37-31.37,0-47.06.24-5.27.06-10.8-1.19-15.15,1.39-3.23,3.16-2.66,6.57-2.66,9.72q-.1,64.11,0,128.2a53.21,53.21,0,0,0,.67,9.7c2.61,13.93,12.65,22.77,26.76,23.39,7.55.33,15.14.11,22.71.09,5.95,0,11.9-.33,17.84-.16,10.38.31,13,3,13.93,13.68.09,1.08.15,2.16.15,3.24.1,15.15-.2,30.31.38,45.43.53,13.67-8.4,19.82-19.66,21.09a56,56,0,0,1-6.48.26c-21.63-.08-43.27,0-64.91-.37-15.91-.29-31-3.92-44.67-12.64-25.73-16.36-38.32-40.5-41.38-70-1.44-13.95-1.56-28.08-1.67-42.13-.31-37.87-.26-75.73-.43-113.6C1070.46,1498.07,1071.2,1492.63,1068.22,1485.73Z"/><path d="M875.44,1568.54V1419.19c0-14.57,5.74-20.84,20.35-21.08,18.4-.31,36.8-.07,55.2,0a38.82,38.82,0,0,1,6.47.46c8.19,1.44,13.45,7,14.14,15.29.36,4.31.25,8.66.25,13q0,144.5-.06,289c0,2.71.1,5.42-.06,8.12-.61,10-5.82,16.15-15.43,17.88a46.32,46.32,0,0,1-8.08.57q-25.17.09-50.33.05a48.24,48.24,0,0,1-6.48-.26c-8.69-1.21-13.75-5.9-15-14.55a105.63,105.63,0,0,1-.59-14.58q0-72.24,0-144.49Z"/><path d="M1390.38,1570.61v139.5c0,4.32.22,8.66-.06,13-.71,11.41-7,18.64-18.13,18.85-20,.37-40,.28-60-.54-11.68-.48-17.17-6.93-18.24-18.77-.34-3.76-.26-7.57-.28-11.35q-.81-142.74-1.59-285.48a87.27,87.27,0,0,1,.33-11.33c1.14-9,6.81-14.55,15.85-15.74a62.26,62.26,0,0,1,8.09-.27c16.76-.11,33.52-.15,50.28-.3,4.35,0,8.66-.1,12.76,1.62,5.35,2.23,9.17,5.67,9.47,11.91.3,6.48.87,13,.89,19.43q.11,69.75,0,139.5Z"/><path class="cls-2" d="M1729.33,1742c-9.73,0-19.46.06-29.2,0-7.32,0-13.71-2.37-19-7.71-20.56-20.81-38.76-43.64-57.18-66.29-3-3.63-3.56-7.87-3.67-12.17-.34-13.51-.49-27-.64-40.54-.18-17.2,9.6-25.52,23.83-31,9.69-3.76,20.14-3.78,30.42-1.85,7.22,1.36,12.89,5.59,17.72,10.8,9.18,9.91,18.51,19.73,27.05,30.18,17.79,21.77,35.16,43.89,52.57,66a119.28,119.28,0,0,1,10.08,14.68c10.08,17.71-.53,36.63-21.16,38-4.85.31-9.73.21-14.6.24-5.41,0-10.82,0-16.23,0Z"/><path class="cls-3" d="M1483.09,1742c9.74,0,19.47.06,29.2,0,7.33,0,13.72-2.37,19-7.71,20.56-20.81,38.77-43.64,57.19-66.29,3-3.63,3.56-7.87,3.67-12.17.34-13.51.49-27,.63-40.54.19-17.2-9.59-25.52-23.82-31-9.69-3.76-20.15-3.78-30.43-1.85-7.21,1.36-12.88,5.59-17.71,10.8-9.18,9.91-18.51,19.73-27,30.18-17.79,21.77-35.16,43.89-52.57,66a119.28,119.28,0,0,0-10.08,14.68c-10.08,17.71.53,36.63,21.16,38,4.85.31,9.73.21,14.6.24,5.41,0,10.82,0,16.22,0Z"/><path class="cls-4" d="M1483.09,1398.74c9.74,0,19.47,0,29.2,0,7.33,0,13.72,2.37,19,7.71,20.56,20.81,38.77,43.64,57.19,66.29,3,3.63,3.56,7.86,3.67,12.17.34,13.51.49,27,.63,40.54.19,17.2-9.59,25.52-23.82,31-9.69,3.76-20.15,3.78-30.43,1.85-7.21-1.36-12.88-5.59-17.71-10.8-9.18-9.91-18.51-19.73-27-30.18-17.79-21.77-35.16-43.89-52.57-66a118.64,118.64,0,0,1-10.08-14.69c-10.08-17.7.53-36.62,21.16-38,4.85-.31,9.73-.21,14.6-.24,5.41,0,10.82,0,16.22,0Z"/><path class="cls-5" d="M1729.33,1398.74c-9.73,0-19.46,0-29.2,0-7.32,0-13.71,2.37-19,7.71-20.56,20.81-38.76,43.64-57.18,66.29-3,3.63-3.56,7.86-3.67,12.17-.34,13.51-.49,27-.64,40.54-.18,17.2,9.6,25.52,23.83,31,9.69,3.76,20.14,3.78,30.42,1.85,7.22-1.36,12.89-5.59,17.72-10.8,9.18-9.91,18.51-19.73,27.05-30.18,17.79-21.77,35.16-43.89,52.57-66a118.64,118.64,0,0,0,10.08-14.69c10.08-17.7-.53-36.62-21.16-38-4.85-.31-9.73-.21-14.6-.24-5.41,0-10.82,0-16.23,0Z"/><circle cx="923.65" cy="1309.6" r="58.45"/><circle cx="1341.26" cy="1309.6" r="58.45"/></svg>