<svg id="Layer_1" data-name="Layer 1" xmlns="http://www.w3.org/2000/svg" viewBox="0 0 3000 3000"><defs><style>.cls-1{fill:#fff;}.cls-2{fill:#f7794e;}.cls-3{fill:#3c9ece;}.cls-4{fill:#3477c1;}</style></defs><rect x="799.84" y="812.34" width="1400.32" height="1375.32" rx="295.96"/><path class="cls-1" d="M1798.8,1916.58c-23.62,0-47.24.12-70.87,0-17.76-.13-33.27-5.74-46.08-18.7-49.9-50.51-94.08-105.91-138.79-160.89-7.17-8.82-8.64-19.09-8.9-29.53-.84-32.79-1.18-65.59-1.54-98.4-.46-41.72,23.28-61.92,57.82-75.32,23.53-9.12,48.89-9.17,73.84-4.49,17.51,3.29,31.28,13.55,43,26.2,22.29,24,44.93,47.89,65.66,73.26,43.16,52.83,85.31,106.51,127.57,160.08A291.07,291.07,0,0,1,1925,1824.4c24.46,43-1.28,88.88-51.36,92.11-11.77.76-23.61.51-35.42.59-13.13.09-26.25,0-39.38,0Z"/><path class="cls-2" d="M1201.2,1916.58c23.62,0,47.24.12,70.87,0,17.76-.13,33.27-5.74,46.08-18.7,49.9-50.51,94.08-105.91,138.79-160.89,7.17-8.82,8.64-19.09,8.9-29.53.84-32.79,1.18-65.59,1.54-98.4.46-41.72-23.28-61.92-57.82-75.32-23.53-9.12-48.89-9.17-73.84-4.49-17.51,3.29-31.28,13.55-43,26.2-22.29,24-44.93,47.89-65.66,73.26-43.16,52.83-85.31,106.51-127.57,160.08A291.07,291.07,0,0,0,1075,1824.4c-24.46,43,1.28,88.88,51.36,92.11,11.77.76,23.61.51,35.42.59,13.13.09,26.25,0,39.38,0Z"/><path class="cls-3" d="M1201.2,1083.42c23.62,0,47.24-.12,70.87,0,17.76.13,33.27,5.74,46.08,18.7,49.9,50.51,94.08,105.91,138.79,160.89,7.17,8.82,8.64,19.09,8.9,29.53.84,32.79,1.18,65.59,1.54,98.4.46,41.72-23.28,61.92-57.82,75.32-23.53,9.12-48.89,9.17-73.84,4.49-17.51-3.29-31.28-13.55-43-26.2-22.29-24-44.93-47.89-65.66-73.26-43.16-52.83-85.31-106.51-127.57-160.08A291.07,291.07,0,0,1,1075,1175.6c-24.46-43,1.28-88.88,51.36-92.11,11.77-.76,23.61-.51,35.42-.59,13.13-.09,26.25,0,39.38,0Z"/><path class="cls-4" d="M1798.8,1083.42c-23.62,0-47.24-.12-70.87,0-17.76.13-33.27,5.74-46.08,18.7-49.9,50.51-94.08,105.91-138.79,160.89-7.17,8.82-8.64,19.09-8.9,29.53-.84,32.79-1.18,65.59-1.54,98.4-.46,41.72,23.28,61.92,57.82,75.32,23.53,9.12,48.89,9.17,73.84,4.49,17.51-3.29,31.28-13.55,43-26.2,22.29-24,44.93-47.89,65.66-73.26,43.16-52.83,85.31-106.51,127.57-160.08A291.07,291.07,0,0,0,1925,1175.6c24.46-43-1.28-88.88-51.36-92.11-11.77-.76-23.61-.51-35.42-.59-13.13-.09-26.25,0-39.38,0Z"/></svg>