<svg id="Layer_1" data-name="Layer 1" xmlns="http://www.w3.org/2000/svg" viewBox="0 0 3000 3000"><defs><style>.cls-1{fill:#e7ecf0;}.cls-2{fill:#020202;}.cls-3{fill:#f7794e;}.cls-4{fill:#3c9ece;}.cls-5{fill:#3477c1;}.cls-6{fill:#fff;}</style></defs><rect class="cls-1" width="3000" height="3000"/><path d="M1874.19,1923.71c4.71,19.33,16.81,37.09,32.5,48.09,21.32,14.94,45.08,20.63,70.78,17.54a126.07,126.07,0,0,0,66.21-28.32c4.1-3.37,7.54-7.81,13-9.16,5.36.82,8.75,4.53,12.21,7.79,12.59,11.87,25.89,23,37.1,36.29a19.08,19.08,0,0,1,4.84,10.61c-1.81,7.48-7.94,12.14-13.55,17.15-25.68,23-56,36.59-89.44,43.35a232.14,232.14,0,0,1-95.08-.41c-50.18-10.68-86.93-39.35-111.6-84-13.05-23.63-19.69-49-21.22-75.88-2.16-38.17,4.53-74.33,24-107.66,31.79-54.47,79.57-82.13,142.25-84.92,25.14-1.12,49.66,2,73.39,10.47,50.42,18,82.74,53.46,99.33,103.86,7,21.35,8.52,43.44,8.26,65.7a39.1,39.1,0,0,1-1.8,11.15c-3,9.69-9.7,15.45-20,16.38-4.83.44-9.73.31-14.59.32q-99.81.2-199.63.4C1885.8,1922.46,1880.35,1921.47,1874.19,1923.71Zm3.19-71.42c3.14,3.06,7.08,1.58,10.64,1.59,15.63,0,31.25-.23,46.88-.32,28.57-.15,57.13-.22,85.69-.45,3.57,0,7.69,1.14,10.17-2.89-2-25.28-39.44-55.42-76.72-54.64C1916.44,1796.36,1884.4,1819.35,1877.38,1852.29Z"/><path d="M2260.42,1752.91a169.69,169.69,0,0,1,32.23-22.1c33.16-17.42,68.2-21.78,103.8-11.14,50.37,15,79,50.59,88.67,101.73a188.12,188.12,0,0,1,2.88,35.52c-.18,59.49-.15,119-.23,178.46a93.22,93.22,0,0,1-.44,13c-1.47,10.48-6.48,15-17.1,16.08-2.68.26-5.4.15-8.11.15q-23.52,0-47,0a80.69,80.69,0,0,1-9.72-.26c-8.93-1.11-13.48-5.82-14.19-14.77-.35-4.3-.19-8.65-.19-13q.06-77.88.12-155.75c0-10.26.2-20.59-3-30.55-1.16-3.59-2.23-7.22-3.52-10.77-6.92-19-20.39-30.33-40.36-33.21-29.18-4.2-57.36,4.34-74.14,32-5.71,9.41-9.37,19.45-9.35,30.63,0,7-.24,14.06-.24,21.09,0,42.72,0,85.44-.09,128.17,0,9.72-.09,19.49-.95,29.17-1.08,12.15-6.57,16.88-19,17.71-1.61.1-3.24.07-4.86.06q-25.15-.2-50.3-.41a55.86,55.86,0,0,1-8.09-.35c-7.75-1.23-12.6-6.15-13.49-13.94a114.23,114.23,0,0,1-.39-13q-.09-146.84-.1-293.66a131,131,0,0,1,.59-14.56c.58-5.21,3.05-8,8.4-8.23,25.93-1.34,51.88-1.11,77.82-.1,5.33.21,7.47,2.72,8.17,8.33C2259.06,1736,2259.51,1742.9,2260.42,1752.91Z"/><path d="M781,1946c5,.76,8.28,3.64,11.43,6.55,12.7,11.76,25.53,23.39,37.83,35.56,11.22,11.1,11.1,15.42.21,27.15-15.32,16.51-33.79,28.85-54.3,37.67-50.82,21.85-102.86,25.43-154.74,5-61.61-24.33-96.36-71.11-106.9-136a185.6,185.6,0,0,1,7.08-89.76c16.85-50.25,50.41-85,99.55-104.43,66.83-26.46,147.34-12.65,199.42,33.81,5.66,5,11,10.37,15.19,16.79,3.4,5.22,3.21,10.12-.6,14.94a62.07,62.07,0,0,1-5.19,6.21q-17.46,17-35.07,33.76a51.42,51.42,0,0,1-6.33,5.06c-7,4.82-11,4.85-17.64-.09-3.89-2.91-7.44-6.28-11.28-9.27-19.89-15.51-42.33-23.42-67.69-23.15-38,.42-67.23,23.79-78.35,55-13.49,37.86-2.91,79.32,27.66,102.33,19.12,14.39,41.23,18.39,64.47,16.82,22.22-1.5,41.82-10.18,59.53-23.48C770.41,1952.65,774.75,1947.52,781,1946Z"/><path d="M1068.22,1808.64c-10.63,0-20.34-.28-30,.06-17.92.64-28.29-4.57-27.19-26.65.61-12.41,0-24.88,0-37.32,0-5.36.34-10.72.48-14.9,5.44-6.6,11.45-8.41,18.26-8.33,9.74.12,19.47.25,29.21.3,3.15,0,6.48.84,9.53-1.94,2.49-3.56,1.41-8,1.45-12.21.14-16.77,0-33.54.07-50.3,0-3.79-.14-7.6.23-11.35.87-8.84,4.3-12.49,13.37-13.21,8.07-.64,16.21-.48,24.33-.55,12.44-.09,24.88-.15,37.32-.07a91.35,91.35,0,0,1,12.92.87c5,.74,7.65,3.5,8.29,8.57a107.39,107.39,0,0,1,.58,12.94c.09,17.85,0,35.71.14,53.56,0,3.7.45,7.41.61,10,3.17,4.15,6.59,3.54,9.75,3.55,16.77.07,33.54.06,50.31.08a85.1,85.1,0,0,1,9.72.11c7,.8,10.65,4.22,12.16,11.06a30.26,30.26,0,0,1,.81,6.42c.07,17.31.38,34.62-.06,51.92-.31,12.52-5.33,17.16-18.33,17.47-15.68.38-31.37,0-47.06.24-5.27.07-10.8-1.18-15.15,1.4-3.23,3.16-2.66,6.57-2.66,9.72q-.1,64.1,0,128.2a53.11,53.11,0,0,0,.67,9.69c2.61,13.93,12.65,22.77,26.76,23.39,7.55.34,15.14.12,22.71.09,5.95,0,11.9-.33,17.84-.15,10.38.31,13,3,13.93,13.68.09,1.07.15,2.16.15,3.24.1,15.14-.2,30.3.38,45.43.53,13.66-8.4,19.81-19.66,21.09a56,56,0,0,1-6.48.26c-21.63-.08-43.27,0-64.91-.37-15.91-.3-31-3.93-44.67-12.65-25.73-16.36-38.32-40.49-41.38-70-1.44-14-1.56-28.08-1.67-42.14-.31-37.86-.26-75.73-.43-113.59C1070.46,1821,1071.2,1815.55,1068.22,1808.64Z"/><path d="M875.44,1891.46V1742.1c0-14.57,5.74-20.83,20.35-21.08,18.4-.31,36.8-.06,55.2,0a37.78,37.78,0,0,1,6.47.46c8.19,1.44,13.45,7,14.14,15.29.36,4.3.25,8.65.25,13q0,144.49-.06,289c0,2.71.1,5.42-.06,8.12-.61,10-5.82,16.14-15.43,17.88a47.31,47.31,0,0,1-8.08.56q-25.17.09-50.33,0a48.23,48.23,0,0,1-6.48-.25c-8.69-1.21-13.75-5.9-15-14.56a105.55,105.55,0,0,1-.59-14.57q-.06-72.24,0-144.49Z"/><path d="M1390.38,1893.53V2033c0,4.33.22,8.67-.06,13-.71,11.4-7,18.63-18.13,18.84-20,.38-40,.29-60-.53-11.68-.49-17.17-6.94-18.24-18.78-.34-3.76-.26-7.56-.28-11.35q-.81-142.74-1.59-285.47a87.42,87.42,0,0,1,.33-11.34c1.14-9,6.81-14.54,15.85-15.74a66,66,0,0,1,8.09-.27c16.76-.1,33.52-.14,50.28-.29,4.35,0,8.66-.1,12.76,1.61,5.35,2.24,9.17,5.67,9.47,11.92.3,6.48.87,13,.89,19.43q.11,69.75,0,139.5Z"/><path class="cls-2" d="M1729.33,2065c-9.73,0-19.46.05-29.2,0-7.32-.05-13.71-2.36-19-7.7-20.56-20.81-38.76-43.64-57.18-66.29-3-3.64-3.56-7.87-3.67-12.17-.34-13.51-.49-27-.64-40.55-.18-17.19,9.6-25.51,23.83-31,9.69-3.76,20.14-3.78,30.42-1.85,7.22,1.35,12.89,5.58,17.72,10.79,9.18,9.91,18.51,19.73,27.05,30.19,17.79,21.77,35.16,43.88,52.57,66a119.39,119.39,0,0,1,10.08,14.69c10.08,17.7-.53,36.62-21.16,37.95-4.85.32-9.73.21-14.6.24-5.41,0-10.82,0-16.23,0Z"/><path class="cls-3" d="M1483.09,2065c9.74,0,19.47.05,29.2,0,7.33-.05,13.72-2.36,19-7.7,20.56-20.81,38.77-43.64,57.19-66.29,3-3.64,3.56-7.87,3.67-12.17.34-13.51.49-27,.63-40.55.19-17.19-9.59-25.51-23.82-31-9.69-3.76-20.15-3.78-30.43-1.85-7.21,1.35-12.88,5.58-17.71,10.79-9.19,9.91-18.51,19.73-27,30.19-17.79,21.77-35.16,43.88-52.57,66a119.39,119.39,0,0,0-10.08,14.69c-10.08,17.7.53,36.62,21.16,37.95,4.85.32,9.73.21,14.6.24,5.41,0,10.82,0,16.22,0Z"/><path class="cls-4" d="M1483.09,1721.66c9.74,0,19.47-.05,29.2,0,7.33,0,13.72,2.36,19,7.7,20.56,20.81,38.77,43.64,57.19,66.29,3,3.64,3.56,7.87,3.67,12.17.34,13.51.49,27,.63,40.55.19,17.19-9.59,25.51-23.82,31-9.69,3.76-20.15,3.78-30.43,1.85-7.21-1.35-12.88-5.58-17.71-10.79-9.19-9.91-18.51-19.73-27-30.19-17.79-21.77-35.16-43.88-52.57-66a120.16,120.16,0,0,1-10.08-14.69c-10.08-17.7.53-36.62,21.16-38,4.85-.32,9.73-.21,14.6-.25,5.41,0,10.82,0,16.22,0Z"/><path class="cls-5" d="M1729.33,1721.66c-9.73,0-19.46-.05-29.2,0-7.32,0-13.71,2.36-19,7.7-20.56,20.81-38.76,43.64-57.18,66.29-3,3.64-3.56,7.87-3.67,12.17-.34,13.51-.49,27-.64,40.55-.18,17.19,9.6,25.51,23.83,31,9.69,3.76,20.14,3.78,30.42,1.85,7.22-1.35,12.89-5.58,17.72-10.79,9.18-9.91,18.51-19.73,27.05-30.19,17.79-21.77,35.16-43.88,52.57-66a120.16,120.16,0,0,0,10.08-14.69c10.08-17.7-.53-36.62-21.16-38-4.85-.32-9.73-.21-14.6-.25-5.41,0-10.82,0-16.23,0Z"/><circle cx="923.65" cy="1632.51" r="58.45"/><circle cx="1341.26" cy="1632.51" r="58.45"/><rect class="cls-6" x="1277.53" y="928.23" width="444.95" height="437" rx="74.7"/><path class="cls-2" d="M1594.94,1279.1c-7.5,0-15,0-22.51,0a19.82,19.82,0,0,1-14.65-5.94c-15.85-16.05-29.89-33.65-44.1-51.12-2.28-2.8-2.74-6.06-2.83-9.38-.26-10.42-.37-20.84-.49-31.27-.14-13.25,7.4-19.67,18.38-23.93,7.47-2.9,15.53-2.91,23.46-1.43,5.56,1,9.94,4.31,13.66,8.33,7.08,7.64,14.27,15.21,20.86,23.28,13.72,16.78,27.11,33.84,40.54,50.86a92,92,0,0,1,7.77,11.33c7.77,13.65-.41,28.24-16.32,29.27-3.74.24-7.5.16-11.26.18-4.17,0-8.34,0-12.51,0Z"/><path class="cls-3" d="M1405.06,1279.1c7.5,0,15,0,22.51,0a19.82,19.82,0,0,0,14.65-5.94c15.85-16.05,29.89-33.65,44.1-51.12,2.28-2.8,2.74-6.06,2.83-9.38.26-10.42.37-20.84.49-31.27.14-13.25-7.4-19.67-18.38-23.93-7.47-2.9-15.53-2.91-23.46-1.43-5.56,1-9.94,4.31-13.66,8.33-7.08,7.64-14.27,15.21-20.86,23.28-13.72,16.78-27.11,33.84-40.54,50.86a92,92,0,0,0-7.77,11.33c-7.77,13.65.41,28.24,16.32,29.27,3.74.24,7.5.16,11.26.18,4.17,0,8.34,0,12.51,0Z"/><path class="cls-4" d="M1405.06,1014.37c7.5,0,15,0,22.51,0a19.86,19.86,0,0,1,14.65,5.94c15.85,16,29.89,33.65,44.1,51.12,2.28,2.8,2.74,6.07,2.83,9.38.26,10.42.37,20.85.49,31.27.14,13.26-7.4,19.68-18.38,23.93-7.47,2.9-15.53,2.92-23.46,1.43-5.56-1-9.94-4.31-13.66-8.32-7.08-7.65-14.27-15.22-20.86-23.28-13.72-16.79-27.11-33.84-40.54-50.87a92,92,0,0,1-7.77-11.33c-7.77-13.65.41-28.24,16.32-29.26,3.74-.24,7.5-.16,11.26-.19,4.17,0,8.34,0,12.51,0Z"/><path class="cls-5" d="M1594.94,1014.37c-7.5,0-15,0-22.51,0a19.86,19.86,0,0,0-14.65,5.94c-15.85,16-29.89,33.65-44.1,51.12-2.28,2.8-2.74,6.07-2.83,9.38-.26,10.42-.37,20.85-.49,31.27-.14,13.26,7.4,19.68,18.38,23.93,7.47,2.9,15.53,2.92,23.46,1.43,5.56-1,9.94-4.31,13.66-8.32,7.08-7.65,14.27-15.22,20.86-23.28,13.72-16.79,27.11-33.84,40.54-50.87a92,92,0,0,0,7.77-11.33c7.77-13.65-.41-28.24-16.32-29.26-3.74-.24-7.5-.16-11.26-.19-4.17,0-8.34,0-12.51,0Z"/></svg>