<svg id="Layer_1" data-name="Layer 1" xmlns="http://www.w3.org/2000/svg" viewBox="0 0 3000 3000"><defs><style>.cls-1{fill:#e7ecf0;}.cls-2{fill:#020202;}.cls-3{fill:#f7794e;}.cls-4{fill:#3c9ece;}.cls-5{fill:#3477c1;}.cls-6{fill:#fff;}</style></defs><rect class="cls-1" width="3000" height="3000"/><path d="M2024.06,1529.85a59.29,59.29,0,0,0,22.92,33.92c15,10.54,31.8,14.56,49.93,12.38a89,89,0,0,0,46.7-20c2.89-2.37,5.31-5.51,9.15-6.46,3.77.58,6.16,3.19,8.61,5.5,8.88,8.37,18.26,16.23,26.16,25.59a13.5,13.5,0,0,1,3.42,7.49c-1.28,5.27-5.6,8.56-9.56,12.09-18.11,16.19-39.5,25.81-63.08,30.58a163.67,163.67,0,0,1-67.07-.29c-35.39-7.53-61.31-27.76-78.71-59.26-9.21-16.67-13.89-34.57-15-53.53-1.52-26.92,3.2-52.42,16.92-75.93,22.43-38.42,56.13-57.93,100.34-59.9a134.09,134.09,0,0,1,51.76,7.39c35.56,12.73,58.36,37.71,70.06,73.26,5,15,6,30.63,5.83,46.34a28,28,0,0,1-1.27,7.86c-2.15,6.84-6.85,10.89-14.08,11.55-3.41.31-6.86.22-10.29.22q-70.41.15-140.81.29C2032.25,1529,2028.4,1528.28,2024.06,1529.85Zm2.25-50.37c2.21,2.15,5,1.11,7.5,1.12,11,0,22.05-.16,33.07-.22,20.15-.11,40.29-.16,60.44-.32,2.52,0,5.42.81,7.17-2-1.37-17.83-27.81-39.09-54.11-38.54C2053.86,1440,2031.26,1456.25,2026.31,1479.48Z"/><path d="M2296.48,1409.38a119.3,119.3,0,0,1,22.74-15.58c23.38-12.29,48.1-15.37,73.21-7.86,35.53,10.61,55.71,35.68,62.54,71.75a133.46,133.46,0,0,1,2,25c-.13,42-.11,83.92-.16,125.88a66.23,66.23,0,0,1-.31,9.14c-1,7.39-4.58,10.62-12.06,11.34-1.9.18-3.82.11-5.72.11q-16.59,0-33.19,0a56,56,0,0,1-6.86-.18c-6.3-.78-9.5-4.1-10-10.42-.24-3-.13-6.1-.13-9.15q0-54.93.09-109.86c0-7.23.14-14.51-2.13-21.54-.82-2.54-1.58-5.09-2.49-7.6-4.88-13.39-14.38-21.39-28.46-23.42-20.59-3-40.46,3.06-52.3,22.56-4,6.63-6.6,13.71-6.59,21.6,0,5-.17,9.91-.17,14.87,0,30.14,0,60.27-.07,90.4,0,6.87-.06,13.76-.67,20.58-.76,8.57-4.63,11.91-13.37,12.49-1.14.08-2.29,0-3.44,0q-17.73-.13-35.47-.29a38.8,38.8,0,0,1-5.71-.24c-5.46-.87-8.89-4.34-9.51-9.83a79.6,79.6,0,0,1-.28-9.14q-.06-103.58-.07-207.13a92.43,92.43,0,0,1,.42-10.27c.41-3.68,2.15-5.61,5.92-5.81,18.29-.94,36.6-.78,54.89-.06,3.76.14,5.27,1.91,5.77,5.87C2295.52,1397.48,2295.84,1402.32,2296.48,1409.38Z"/><path d="M1253,1545.58c3.5.54,5.84,2.56,8.06,4.62,9,8.29,18,16.49,26.69,25.08,7.91,7.83,7.83,10.87.15,19.15a112,112,0,0,1-38.31,26.57c-35.84,15.41-72.55,17.93-109.14,3.49-43.46-17.16-68-50.16-75.4-95.9a130.87,130.87,0,0,1,5-63.31c11.88-35.44,35.55-59.93,70.21-73.66,47.14-18.66,103.93-8.92,140.66,23.85a60.07,60.07,0,0,1,10.71,11.85c2.4,3.68,2.27,7.13-.42,10.53a42.88,42.88,0,0,1-3.66,4.38q-12.32,12-24.74,23.81a34.89,34.89,0,0,1-4.46,3.57c-4.94,3.4-7.77,3.43-12.44-.06-2.75-2-5.25-4.43-8-6.54-14-10.94-29.85-16.52-47.75-16.33-26.79.29-47.41,16.79-55.26,38.82-9.51,26.7-2,55.94,19.51,72.17,13.49,10.16,29.08,13,45.48,11.87,15.67-1.06,29.49-7.18,42-16.56C1245.52,1550.26,1248.58,1546.65,1253,1545.58Z"/><path d="M1455.58,1448.69c-7.5,0-14.34-.2-21.18,0-12.63.45-20-3.23-19.17-18.81.43-8.75,0-17.54,0-26.32,0-3.78.24-7.56.34-10.51a15.09,15.09,0,0,1,12.88-5.87c6.87.08,13.73.18,20.6.21,2.22,0,4.58.59,6.73-1.37,1.75-2.51,1-5.65,1-8.61.1-11.83,0-23.65,0-35.48,0-2.67-.09-5.36.17-8,.61-6.23,3-8.81,9.43-9.31,5.69-.45,11.44-.34,17.16-.39,8.77-.07,17.55-.11,26.32,0a66,66,0,0,1,9.12.61c3.51.53,5.39,2.47,5.84,6.05a75,75,0,0,1,.41,9.13c.06,12.59,0,25.18.1,37.77,0,2.62.32,5.23.43,7,2.24,2.93,4.65,2.5,6.88,2.51,11.83,0,23.65,0,35.48.05a60.31,60.31,0,0,1,6.86.08c4.93.56,7.51,3,8.58,7.8a21.68,21.68,0,0,1,.56,4.53c.06,12.21.28,24.42,0,36.62-.23,8.83-3.77,12.1-12.93,12.32-11.06.27-22.13,0-33.19.17-3.72,0-7.62-.84-10.69,1-2.28,2.23-1.88,4.63-1.88,6.85q-.08,45.21,0,90.43a38,38,0,0,0,.46,6.83c1.84,9.83,8.93,16.07,18.88,16.5,5.33.24,10.68.08,16,.06,4.19,0,8.39-.23,12.58-.1,7.32.21,9.15,2.09,9.83,9.64.06.76.1,1.53.1,2.29.07,10.68-.14,21.38.27,32,.37,9.63-5.92,14-13.86,14.87a38.71,38.71,0,0,1-4.57.18c-15.27-.06-30.53,0-45.79-.26-11.22-.21-21.83-2.77-31.5-8.92-18.15-11.54-27-28.56-29.19-49.35-1-9.84-1.1-19.8-1.18-29.72-.22-26.7-.19-53.41-.3-80.12C1457.16,1457.4,1457.68,1453.56,1455.58,1448.69Z"/><path d="M1319.61,1507.11V1401.76c0-10.28,4.05-14.69,14.35-14.87,13-.22,26,0,38.94,0a25.79,25.79,0,0,1,4.56.33c5.78,1,9.48,5,10,10.78.25,3,.18,6.1.18,9.16q0,101.91,0,203.83c0,1.9.08,3.82,0,5.72-.42,7.09-4.1,11.39-10.88,12.61a32.84,32.84,0,0,1-5.7.4q-17.75.06-35.5,0a34.79,34.79,0,0,1-4.57-.17c-6.13-.86-9.69-4.16-10.56-10.27a73.35,73.35,0,0,1-.41-10.28q0-51,0-101.91Z"/><path d="M1682.81,1508.57V1607c0,3,.15,6.11,0,9.15-.51,8-5,13.14-12.79,13.29-14.1.26-28.23.2-42.32-.38-8.24-.34-12.11-4.89-12.86-13.24-.24-2.65-.19-5.34-.2-8q-.57-100.68-1.13-201.36a62.73,62.73,0,0,1,.24-8c.8-6.33,4.8-10.25,11.18-11.1a45.22,45.22,0,0,1,5.71-.19c11.82-.07,23.64-.1,35.46-.21,3.07,0,6.11-.07,9,1.14,3.77,1.58,6.47,4,6.68,8.41.21,4.57.62,9.13.62,13.7q.09,49.2,0,98.4Z"/><path class="cls-2" d="M1921.89,1629.48c-6.87,0-13.73,0-20.6,0a18.16,18.16,0,0,1-13.39-5.43c-14.5-14.68-27.35-30.79-40.34-46.76-2.08-2.56-2.51-5.55-2.59-8.58-.24-9.53-.34-19.07-.44-28.6-.14-12.13,6.76-18,16.8-21.89,6.84-2.65,14.21-2.67,21.46-1.31,5.09,1,9.09,3.94,12.5,7.62,6.47,7,13,13.91,19.08,21.29,12.54,15.35,24.79,31,37.07,46.52a84.49,84.49,0,0,1,7.11,10.36c7.11,12.49-.37,25.83-14.92,26.77-3.42.23-6.87.15-10.3.17-3.81,0-7.63,0-11.44,0Z"/><path class="cls-3" d="M1748.21,1629.48c6.86,0,13.73,0,20.59,0a18.18,18.18,0,0,0,13.4-5.43c14.5-14.68,27.34-30.79,40.33-46.76,2.09-2.56,2.51-5.55,2.59-8.58.24-9.53.34-19.07.45-28.6.13-12.13-6.77-18-16.81-21.89-6.84-2.65-14.21-2.67-21.46-1.31-5.09,1-9.09,3.94-12.49,7.62-6.48,7-13.06,13.91-19.08,21.29-12.55,15.35-24.8,31-37.08,46.52a85.62,85.62,0,0,0-7.11,10.36c-7.11,12.49.37,25.83,14.93,26.77,3.42.23,6.86.15,10.29.17,3.82,0,7.63,0,11.45,0Z"/><path class="cls-4" d="M1748.21,1387.34c6.86,0,13.73,0,20.59,0a18.19,18.19,0,0,1,13.4,5.44c14.5,14.68,27.34,30.78,40.33,46.76,2.09,2.56,2.51,5.54,2.59,8.58.24,9.53.34,19.06.45,28.6.13,12.12-6.77,18-16.81,21.89-6.84,2.65-14.21,2.66-21.46,1.3-5.09-1-9.09-3.94-12.49-7.61-6.48-7-13.06-13.92-19.08-21.29-12.55-15.36-24.8-31-37.08-46.53a84.08,84.08,0,0,1-7.11-10.36c-7.11-12.49.37-25.83,14.93-26.77,3.42-.22,6.86-.15,10.29-.17,3.82,0,7.63,0,11.45,0Z"/><path class="cls-5" d="M1921.89,1387.34c-6.87,0-13.73,0-20.6,0a18.17,18.17,0,0,0-13.39,5.44c-14.5,14.68-27.35,30.78-40.34,46.76-2.08,2.56-2.51,5.54-2.59,8.58-.24,9.53-.34,19.06-.44,28.6-.14,12.12,6.76,18,16.8,21.89,6.84,2.65,14.21,2.66,21.46,1.3,5.09-1,9.09-3.94,12.5-7.61,6.47-7,13-13.92,19.08-21.29,12.54-15.36,24.79-31,37.07-46.53a83,83,0,0,0,7.11-10.36c7.11-12.49-.37-25.83-14.92-26.77-3.42-.22-6.87-.15-10.3-.17-3.81,0-7.63,0-11.44,0Z"/><circle cx="1353.61" cy="1324.46" r="41.23"/><circle cx="1648.16" cy="1324.46" r="41.23"/><rect class="cls-6" x="543" y="1299.51" width="424.84" height="417.25" rx="74.7"/><path class="cls-2" d="M846.07,1634.52c-7.17,0-14.33,0-21.5,0a19,19,0,0,1-14-5.67c-15.14-15.33-28.54-32.14-42.11-48.81-2.17-2.68-2.62-5.8-2.7-9-.25-10-.36-19.9-.47-29.85-.14-12.66,7.07-18.79,17.55-22.86,7.13-2.76,14.83-2.78,22.4-1.36,5.31,1,9.49,4.11,13,8,6.76,7.3,13.63,14.53,19.92,22.22,13.1,16,25.88,32.32,38.7,48.57a87.43,87.43,0,0,1,7.42,10.82c7.42,13-.38,27-15.58,27.94-3.57.23-7.16.16-10.74.18-4,0-8,0-11.95,0Z"/><path class="cls-3" d="M664.77,1634.52c7.16,0,14.33,0,21.5,0a19,19,0,0,0,14-5.67c15.14-15.33,28.54-32.14,42.1-48.81,2.18-2.68,2.62-5.8,2.7-9,.26-10,.36-19.9.47-29.85.14-12.66-7.06-18.79-17.54-22.86-7.14-2.76-14.83-2.78-22.4-1.36-5.32,1-9.49,4.11-13,8-6.77,7.3-13.64,14.53-19.92,22.22-13.1,16-25.89,32.32-38.71,48.57a88.54,88.54,0,0,0-7.42,10.82c-7.42,13,.39,27,15.58,27.94,3.57.23,7.17.16,10.75.18,4,0,8,0,11.95,0Z"/><path class="cls-4" d="M664.77,1381.76c7.16,0,14.33,0,21.5,0a19,19,0,0,1,14,5.67c15.14,15.32,28.54,32.13,42.1,48.81,2.18,2.68,2.62,5.79,2.7,9,.26,10,.36,19.9.47,29.85.14,12.66-7.06,18.79-17.54,22.85-7.14,2.77-14.83,2.79-22.4,1.37-5.32-1-9.49-4.12-13-8-6.77-7.3-13.64-14.53-19.92-22.23-13.1-16-25.89-32.31-38.71-48.56a88.54,88.54,0,0,1-7.42-10.82c-7.42-13,.39-27,15.58-27.94,3.57-.24,7.17-.16,10.75-.18,4,0,8,0,11.95,0Z"/><path class="cls-5" d="M846.07,1381.76c-7.17,0-14.33,0-21.5,0a19,19,0,0,0-14,5.67c-15.14,15.32-28.54,32.13-42.11,48.81-2.17,2.68-2.62,5.79-2.7,9-.25,10-.36,19.9-.47,29.85-.14,12.66,7.07,18.79,17.55,22.85,7.13,2.77,14.83,2.79,22.4,1.37,5.31-1,9.49-4.12,13-8,6.76-7.3,13.63-14.53,19.92-22.23,13.1-16,25.88-32.31,38.7-48.56a87.43,87.43,0,0,0,7.42-10.82c7.42-13-.38-27-15.58-27.94-3.57-.24-7.16-.16-10.74-.18-4,0-8,0-11.95,0Z"/></svg>